<svg width="132" height="18" viewBox="0 0 132 18" fill="none" xmlns="http://www.w3.org/2000/svg">
<rect width="27" height="18" rx="2" fill="white"/>
<rect x="0.5" y="0.5" width="26" height="17" rx="1.5" stroke="black" stroke-opacity="0.2"/>
<path fill-rule="evenodd" clip-rule="evenodd" d="M26.74 13.35V15.306H24.256L23.338 14.232L22.384 15.306H15.328V9.588H13L15.91 3H18.742L19.426 4.494V3H22.942L23.53 4.566L24.106 3H26.74V3.92999H24.706L23.782 6.36601L23.536 7.02599L22.354 3.92999H20.32V8.72998L18.208 3.92999H16.57L14.446 8.72998H15.838L16.21 7.806H18.538L18.91 8.72998H20.32H21.544V5.604L21.538 4.97399L21.778 5.604L22.948 8.72998H24.112L25.288 5.604L25.516 4.98V8.72998H26.74V10.608L25.384 11.97L26.74 13.35ZM16.312 14.376V9.59397H20.32V10.632H17.536V11.472H20.266V12.504H17.536V13.338H20.32V14.376H16.312ZM26.368 14.376H24.778L23.326 12.816L21.868 14.376H20.32L22.558 11.994L20.32 9.59397H21.916L23.356 11.148L24.802 9.59397H26.368L24.124 11.976L26.368 14.376Z" fill="#016FD0"/>
<path d="M17.374 4.95599L17.134 5.55601L16.636 6.76798H18.112L17.614 5.55601L17.374 4.95599Z" fill="#016FD0"/>
<rect x="35" width="27" height="18" rx="2" fill="white"/>
<rect x="35.5" y="0.5" width="26" height="17" rx="1.5" stroke="black" stroke-opacity="0.2"/>
<path d="M51.6781 5.48601C50.187 5.48601 48.8545 6.25887 48.8545 7.68678C48.8545 9.32432 51.2177 9.43743 51.2177 10.2601C51.2177 10.6065 50.8208 10.9165 50.1428 10.9165C49.1806 10.9165 48.4614 10.4833 48.4614 10.4833L48.1537 11.9242C48.1537 11.9242 48.9822 12.2902 50.0821 12.2902C51.7123 12.2902 52.9951 11.4794 52.9951 10.027C52.9951 8.29668 50.622 8.18694 50.622 7.42337C50.622 7.15203 50.9479 6.85472 51.6239 6.85472C52.3867 6.85472 53.009 7.16982 53.009 7.16982L53.3102 5.77813C53.3102 5.77813 52.633 5.48601 51.6781 5.48601ZM38.0361 5.59104L38 5.80111C38 5.80111 38.6273 5.91592 39.1923 6.14493C39.9198 6.40754 39.9716 6.56042 40.0941 7.03525L41.4292 12.1819H43.2188L45.9759 5.59104H44.1904L42.4188 10.0722L41.6958 6.27376C41.6295 5.83903 41.2937 5.59104 40.8827 5.59104H38.0361ZM46.6939 5.59104L45.2932 12.1819H46.9959L48.3917 5.59104H46.6939ZM56.1904 5.59104C55.7798 5.59104 55.5623 5.81086 55.4026 6.19498L52.9081 12.1819H54.6937L55.0391 11.184H57.2144L57.4245 12.1819H59L57.6255 5.59104H56.1904ZM56.4226 7.37168L56.9519 9.84487H55.5339L56.4226 7.37168Z" fill="#1434CB"/>
<rect x="70" width="27" height="18" rx="2" fill="white"/>
<rect x="70.5" y="0.5" width="26" height="17" rx="1.5" stroke="black" stroke-opacity="0.2"/>
<path d="M81.2017 4.81709H85.7983V13.0763H81.2017V4.81709Z" fill="#FF5F00"/>
<path d="M81.4936 8.94668C81.4936 7.26857 82.2815 5.78016 83.4927 4.81707C82.6026 4.11664 81.479 3.69346 80.2532 3.69346C77.3494 3.69346 75 6.04281 75 8.94668C75 11.8505 77.3494 14.1999 80.2532 14.1999C81.479 14.1999 82.6026 13.7767 83.4927 13.0763C82.2815 12.1278 81.4936 10.6248 81.4936 8.94668Z" fill="#EB001B"/>
<path d="M92 8.94668C92 11.8505 89.6506 14.1999 86.7468 14.1999C85.521 14.1999 84.3974 13.7767 83.5073 13.0763C84.733 12.1132 85.5064 10.6248 85.5064 8.94668C85.5064 7.26857 84.7184 5.78016 83.5073 4.81707C84.3974 4.11664 85.521 3.69346 86.7468 3.69346C89.6506 3.69346 92 6.05741 92 8.94668Z" fill="#F79E1B"/>
<rect x="105" width="27" height="18" rx="2" fill="white"/>
<rect x="105.5" y="0.5" width="26" height="17" rx="1.5" stroke="black" stroke-opacity="0.2"/>
<path d="M132 12C132 12 125.996 16.1424 115 18H132V12Z" fill="#F48120"/>
<path d="M108.053 6.95041H107V10.6406H108.053C108.61 10.6406 109.013 10.5064 109.368 10.2179C109.791 9.86903 110.039 9.34569 110.039 8.80222C110.033 7.70858 109.221 6.95041 108.053 6.95041ZM108.899 9.72813C108.671 9.92941 108.382 10.0233 107.912 10.0233H107.718V7.5811H107.912C108.375 7.5811 108.657 7.66161 108.899 7.87632C109.147 8.09773 109.295 8.43991 109.295 8.79551C109.295 9.15111 109.147 9.50672 108.899 9.72813Z" fill="#231F20"/>
<path d="M111.086 6.95041H110.368V10.6406H111.086V6.95041Z" fill="#231F20"/>
<path d="M112.844 8.3661C112.415 8.20507 112.287 8.09772 112.287 7.90315C112.287 7.66832 112.515 7.49387 112.824 7.49387C113.039 7.49387 113.22 7.58109 113.401 7.7958L113.777 7.30601C113.468 7.03763 113.099 6.89673 112.69 6.89673C112.039 6.89673 111.536 7.35297 111.536 7.95682C111.536 8.46674 111.77 8.72841 112.441 8.96995C112.723 9.0706 112.864 9.13769 112.938 9.17795C113.079 9.27188 113.153 9.40607 113.153 9.56039C113.153 9.86231 112.918 10.0837 112.596 10.0837C112.253 10.0837 111.978 9.90928 111.811 9.59393L111.348 10.0435C111.676 10.5333 112.079 10.748 112.623 10.748C113.367 10.748 113.897 10.2515 113.897 9.53355C113.911 8.93641 113.662 8.66803 112.844 8.3661Z" fill="#231F20"/>
<path d="M114.132 8.80222C114.132 9.88916 114.984 10.7278 116.078 10.7278C116.387 10.7278 116.655 10.6675 116.977 10.5131V9.66774C116.689 9.95625 116.434 10.0703 116.112 10.0703C115.387 10.0703 114.87 9.54697 114.87 8.79551C114.87 8.08431 115.4 7.52742 116.078 7.52742C116.42 7.52742 116.682 7.64819 116.977 7.94341V7.09802C116.662 6.93699 116.4 6.8699 116.091 6.8699C115.011 6.8699 114.132 7.72871 114.132 8.80222Z" fill="#231F20"/>
<path d="M122.693 9.43291L121.707 6.95041H120.922L122.485 10.7345H122.875L124.465 6.95041H123.686L122.693 9.43291Z" fill="#231F20"/>
<path d="M124.794 10.6406H126.833V10.0166H125.511V9.02363H126.786V8.39965H125.511V7.5811H126.833V6.95041H124.794V10.6406Z" fill="#231F20"/>
<path d="M129.685 8.04404C129.685 7.35296 129.208 6.9571 128.376 6.9571H127.31V10.6473H128.027V9.16452H128.121L129.114 10.6473H130L128.839 9.09071C129.383 8.97665 129.685 8.60763 129.685 8.04404ZM128.235 8.6546H128.027V7.53412H128.249C128.698 7.53412 128.94 7.72198 128.94 8.08429C128.94 8.45332 128.698 8.6546 128.235 8.6546Z" fill="#231F20"/>
<path d="M119.184 10.7748C120.27 10.7748 121.15 9.89464 121.15 8.80892C121.15 7.7232 120.27 6.84305 119.184 6.84305C118.099 6.84305 117.218 7.7232 117.218 8.80892C117.218 9.89464 118.099 10.7748 119.184 10.7748Z" fill="#F48120"/>
</svg>
